<mxfile host="app.diagrams.net" modified="2023-06-16T02:37:25.918Z" agent="Mozilla/5.0 (Windows NT 10.0; Win64; x64) AppleWebKit/537.36 (KHTML, like Gecko) Chrome/114.0.0.0 Safari/537.36" version="21.4.0" etag="AbxND4NReTeG44_h18RU" type="github">
  <diagram name="Страница 1" id="t_FUiWrV0la_uiioOKn5">
    <mxGraphModel>
      <root>
        <mxCell id="0" />
        <mxCell id="1" parent="0" />
      </root>
    </mxGraphModel>
  </diagram>
</mxfile>
